# xmcd
#
# Track frame offsets: 
#        150
#        23123
#        42710
#
# Disc length: 790 seconds
#
# Revision: 1
# Processed by: cddbd v1.5.1PL0 Copyright (c) Steve Scherf et al.
# Submitted via: ExactAudioCopy v0.90b4
#
DISCID=21031403
DTITLE=Fantastic Plastic Machine - Summer Review ep (Single)
DYEAR=1998
DGENRE=Electronic
TTITLE0=There Must Be An Angel (Playing With My Heart)
TTITLE1=Electric Lady Land (Japanese Version)
TTITLE2=Bossa For Jackie (Instrumental)
EXTD=YEAR: 1998
EXTT0=
EXTT1=
EXTT2=
PLAYORDER=
